<svg xmlns="http://www.w3.org/2000/svg" viewBox="0 0 24 24" fill="#181717">
  <path d="M12 1.8a10.2 10.2 0 0 0-3.23 19.88c.51.1.7-.22.7-.5v-1.96c-2.86.62-3.46-1.21-3.46-1.21-.47-1.2-1.14-1.52-1.14-1.52-.93-.64.07-.63.07-.63 1.03.07 1.57 1.06 1.57 1.06.91 1.57 2.4 1.12 2.99.86.09-.66.36-1.12.65-1.38-2.28-.26-4.68-1.14-4.68-5.08 0-1.12.4-2.03 1.06-2.75-.11-.26-.46-1.3.1-2.71 0 0 .87-.28 2.8 1.05a9.73 9.73 0 0 1 5.1 0c1.94-1.33 2.8-1.05 2.8-1.05.56 1.41.21 2.45.1 2.71.66.72 1.06 1.63 1.06 2.75 0 3.95-2.4 4.81-4.69 5.07.37.32.7.95.7 1.91v2.83c0 .28.18.61.7.5A10.2 10.2 0 0 0 12 1.8Z"/>
</svg>
