<svg fill="none" height="100%" width="100%" viewBox="0 0 800 800" xmlns:xlink="http://www.w3.org/1999/xlink" xmlns="http://www.w3.org/2000/svg"><g visibility="hidden" id="i0"><animate repeatCount="indefinite" begin="0s" calcMode="discrete" dur="3s" values="hidden; visible; visible" keyTimes="0; 0.089; 1" attributeName="visibility" /><g transform="translate(566.574,480.75)"><animateTransform repeatCount="indefinite" type="translate" attributeName="transform" dur="3s" begin="0s" calcMode="spline" values="566.574 480.75; 566.574 480.75; 571.474 480.75; 566.574 480.75; 566.574 480.75" keyTimes="0; 0.555556; 0.666667; 0.833333; 1" keySplines="0 0 1 1; 0.54 0 0.667 1; 0.333 0 0.45 1; 0 0 1 1" fill="freeze" /><g transform="rotate(0)"><animateTransform repeatCount="indefinite" type="rotate" attributeName="transform" dur="3s" begin="0s" calcMode="spline" values="0; 0; 9.6; -2; 0" keyTimes="0; 0.555556; 0.666667; 0.833333; 1" keySplines="0 0 1 1; 0.54 0 0.667 1; 0.333 0 0.45 1; 0.167 0 0.833 1" fill="freeze" /><g transform="scale(1,1) translate(-164.058,25.342)"><g id="i1"><path d="M140.489,-23.81C153.777,-15.148,174.079,-15.306,187.46,-23.81C195.694,-29.043,196.233,-48.71,188.057,-54.04C174.769,-62.702,154.467,-62.544,141.086,-54.04C132.852,-48.807,132.313,-29.14,140.489,-23.81Z" fill="#ff6699"><animate repeatCount="indefinite" attributeName="d" dur="3s" begin="0s" calcMode="spline" values="M140.489,-23.81C153.777,-15.148,174.079,-15.306,187.46,-23.81C195.694,-29.043,196.233,-48.71,188.057,-54.04C174.769,-62.702,154.467,-62.544,141.086,-54.04C132.852,-48.807,132.313,-29.14,140.489,-23.81Z; M140.489,-23.81C153.777,-15.148,174.079,-15.306,187.46,-23.81C195.694,-29.043,196.233,-48.71,188.057,-54.04C174.769,-62.702,154.467,-62.544,141.086,-54.04C132.852,-48.807,132.313,-29.14,140.489,-23.81Z; M139.492,-59.06C137.687,-42.78,190.232,-42.758,188.632,-59.06C185.488,-91.093,175.994,-124.31,188.628,-196.04C191.984,-215.092,135.484,-218.592,139.488,-196.04C150.484,-136.592,143.488,-95.093,139.492,-59.06Z; M139.488,-66.56C145.3,-51.246,182.816,-51.246,188.628,-66.56C203.942,-106.912,204.086,-130.688,188.772,-171.04C182.96,-186.354,145.444,-186.354,139.632,-171.04C124.318,-130.688,124.174,-106.912,139.488,-66.56Z; M139.638,-106.023C139.826,-89.996,188.438,-89.98,188.778,-106.023C190.483,-134.593,186.484,-147.592,189.212,-205.497C190.168,-223.571,138.637,-226.155,140.072,-205.497C141.484,-161.592,138.58,-143.186,139.638,-106.023Z; M139.552,-65.991C139.633,-59.115,188.546,-59.108,188.692,-65.991C189.423,-78.248,187.707,-157.755,188.878,-182.598C189.288,-190.352,139.122,-191.461,139.738,-182.598C140.344,-163.761,139.098,-81.935,139.552,-65.991Z; M139.488,-66.56C139.488,-66.56,188.628,-66.56,188.628,-66.56C188.628,-66.56,188.628,-196.04,188.628,-196.04C188.628,-196.04,139.488,-196.04,139.488,-196.04C139.488,-196.04,139.488,-66.56,139.488,-66.56Z; M139.488,-66.56C139.488,-66.56,188.628,-66.56,188.628,-66.56C188.628,-66.56,200.326,-149.938,188.854,-191.545C185.759,-202.771,137.788,-200.805,139.714,-191.545C150.302,-140.63,139.488,-66.56,139.488,-66.56Z; M139.488,-66.56C139.488,-66.56,188.628,-66.56,188.628,-66.56C188.628,-66.56,187.196,-145.857,205.42,-186.366C209.201,-194.771,161.342,-204.825,156.982,-194.538C138.777,-151.581,139.488,-66.56,139.488,-66.56Z; M139.488,-66.56C139.488,-66.56,188.628,-66.56,188.628,-66.56C188.628,-66.56,189.076,-161.114,181.056,-193.925C180.165,-197.568,133.005,-199.397,133.594,-191.62C137.239,-143.508,139.488,-66.56,139.488,-66.56Z; M139.488,-66.56C139.488,-66.56,188.628,-66.56,188.628,-66.56C188.628,-66.56,188.628,-196.04,188.628,-196.04C188.628,-196.04,139.488,-196.04,139.488,-196.04C139.488,-196.04,139.488,-66.56,139.488,-66.56Z" keyTimes="0; 0.088889; 0.166667; 0.277778; 0.355556; 0.444445; 0.555555; 0.611111; 0.722222; 0.855555; 1" keySplines="0 0 1 1; 0.167 0.167 0.46 1; 0.54 0 0.833 0.833; 0 0 1 1; 0 0 1 1; 0.167 0.167 0.46 1; 0.54 0 0.667 1; 0.333 0 0.667 1; 0.333 0 0.45 1; 0.167 0 0.833 1" fill="freeze" /></path></g></g></g></g></g><g id="i2"><g transform="translate(566.444,774.872)"><animateTransform repeatCount="indefinite" type="translate" attributeName="transform" dur="3s" begin="0s" calcMode="spline" values="566.444 774.872; 566.444 239.872; 566.444 480.872; 566.444 447.372; 566.444 480.872; 566.444 471.573; 566.444 480.872; 570.944 480.75; 566.444 480.872; 566.444 480.872" keyTimes="0; 0.166667; 0.277778; 0.355556; 0.422223; 0.488889; 0.555556; 0.666667; 0.833333; 1" keySplines="0.56 0 0.44 1; 0.56 0 0.833 0.833; 0.167 0.167 0.667 1; 0.333 0 0.833 0.833; 0.167 0.167 0.667 1; 0.333 0 0.46 1; 0.54 0 0.667 1; 0.333 0 0.45 1; 0 0 1 1" fill="freeze" /><g transform="scale(0,0)"><animateTransform repeatCount="indefinite" type="scale" attributeName="transform" dur="3s" begin="0s" calcMode="spline" values="0 0; 0 0; 1 1; 1 1" keyTimes="0; 0.055556; 0.166667; 1" keySplines="0 0 1 1; 0 0 1 1; 0 0 1 1" fill="freeze" /><g transform="translate(-163.928,25.22)"><g id="i1"><path fill="#ff6699" d="M152.098,-53.3C148.369,-51.74,145.119,-49.571,142.348,-46.8C139.573,-44.025,137.408,-40.775,135.848,-37.05C134.288,-33.321,133.508,-29.38,133.508,-25.22C133.508,-21.06,134.288,-17.115,135.848,-13.39C137.408,-9.661,139.573,-6.455,142.348,-3.77C145.119,-1.081,148.369,1.081,152.098,2.73C155.823,4.375,159.768,5.2,163.928,5.2C168.088,5.2,172.029,4.375,175.758,2.73C179.483,1.081,182.733,-1.081,185.508,-3.77C188.279,-6.455,190.448,-9.661,192.008,-13.39C193.568,-17.115,194.348,-21.06,194.348,-25.22C194.348,-29.38,193.568,-33.321,192.008,-37.05C190.448,-40.775,188.279,-44.025,185.508,-46.8C182.733,-49.571,179.483,-51.74,175.758,-53.3C172.029,-54.86,168.088,-55.64,163.928,-55.64C159.768,-55.64,155.823,-54.86,152.098,-53.3Z" /></g></g></g></g></g><g id="i3"><g transform="translate(227.468,625.872)"><animateMotion repeatCount="indefinite" dur="3s" begin="0s" calcMode="spline" keyTimes="0; 0.166667; 0.277778; 0.388889; 0.5; 0.611111; 0.722222; 0.833333; 1" keySplines="0.56 0 0.44 1; 0.56 0 0.833 0.833; 0 0 1 1; 0 0 1 1; 0.167 0.167 0.667 1; 0.333 0 0.833 0.833; 0 0 1 1; 0 0 1 1" keyPoints="0; 0.353; 0.57; 0.781; 0.917; 0.958; 0.981; 1; 1" path="M0 0 C0 0 0 -377.999 0 -377.999 C0 -377.999 -0.167 -189.833 0 -145 C35.667 -260.167 96.578 -260.463 126 -145 C178.922 -204.037 220.667 -177.5 248.5 -145 C274.833 -159.75 287.968 -146 290.25 -145.122 C277.657 -151.869 272.458 -147.892 267.25 -145.122 C256.792 -152.352 248.5 -145 248.5 -145" fill="freeze" /><g transform="scale(0,0)"><animateTransform repeatCount="indefinite" type="scale" attributeName="transform" dur="3s" begin="0s" calcMode="spline" values="0 0; 0 0; 1 1; 1 1" keyTimes="0; 0.055556; 0.166667; 1" keySplines="0 0 1 1; 0 0 1 1; 0 0 1 1" fill="freeze" /><g transform="translate(-73.451,25.22)"><g id="i4"><path fill="#ff6699" d="M61.621,-53.3C57.892,-51.74,54.642,-49.571,51.871,-46.8C49.096,-44.025,46.931,-40.775,45.371,-37.05C43.811,-33.321,43.031,-29.38,43.031,-25.22C43.031,-21.06,43.811,-17.115,45.371,-13.39C46.931,-9.661,49.096,-6.455,51.871,-3.77C54.642,-1.081,57.892,1.081,61.621,2.73C65.346,4.375,69.291,5.2,73.451,5.2C77.611,5.2,81.552,4.375,85.281,2.73C89.006,1.081,92.256,-1.081,95.031,-3.77C97.802,-6.455,99.971,-9.661,101.531,-13.39C103.091,-17.115,103.871,-21.06,103.871,-25.22C103.871,-29.38,103.091,-33.321,101.531,-37.05C99.971,-40.775,97.802,-44.025,95.031,-46.8C92.256,-49.571,89.006,-51.74,85.281,-53.3C81.552,-54.86,77.611,-55.64,73.451,-55.64C69.291,-55.64,65.346,-54.86,61.621,-53.3Z" /></g></g></g></g></g><g transform="matrix(1,0,0,1,232.016,573.092)" visibility="hidden" id="i5"><animate repeatCount="indefinite" begin="0s" calcMode="discrete" dur="3s" values="hidden; visible; visible" keyTimes="0; 0.144; 1" attributeName="visibility" /><g id="i1"><path d="M140.388,-90.31C153.641,-81.648,173.887,-81.806,187.233,-90.31C195.445,-95.543,195.984,-115.21,187.829,-120.54C174.576,-129.202,154.329,-129.044,140.983,-120.54C132.771,-115.307,132.233,-95.64,140.388,-90.31Z" fill="#ff6699"><animate repeatCount="indefinite" attributeName="d" dur="3s" begin="0s" calcMode="spline" values="M140.388,-90.31C153.641,-81.648,173.887,-81.806,187.233,-90.31C195.445,-95.543,195.984,-115.21,187.829,-120.54C174.576,-129.202,154.329,-129.044,140.983,-120.54C132.771,-115.307,132.233,-95.64,140.388,-90.31Z; M140.388,-90.31C153.641,-81.648,173.887,-81.806,187.233,-90.31C195.445,-95.543,195.984,-115.21,187.829,-120.54C174.576,-129.202,154.329,-129.044,140.983,-120.54C132.771,-115.307,132.233,-95.64,140.388,-90.31Z; M139.492,-91.81C137.687,-75.53,190.232,-75.508,188.632,-91.81C185.488,-123.843,175.994,-157.06,188.628,-228.79C191.984,-247.842,135.484,-251.342,139.488,-228.79C150.484,-169.342,143.488,-127.843,139.492,-91.81Z; M139.488,-66.56C145.171,-63.662,177.132,-63.598,188.628,-66.56C213.984,-73.093,211.453,-120.947,188.811,-114.29C171.984,-109.342,153.734,-110.592,139.671,-114.29C125.477,-118.022,110.984,-81.093,139.488,-66.56Z; M139.638,-106.023C139.826,-89.996,188.438,-89.98,188.778,-106.023C190.483,-134.593,186.484,-147.592,189.212,-205.497C190.168,-223.571,138.637,-226.155,140.072,-205.497C141.484,-161.592,138.58,-143.186,139.638,-106.023Z; M139.552,-65.991C139.633,-59.115,188.546,-59.108,188.692,-65.991C189.423,-78.248,187.707,-157.755,188.878,-182.598C189.288,-190.352,139.122,-191.461,139.738,-182.598C140.344,-163.761,139.098,-81.935,139.552,-65.991Z; M139.488,-66.56C139.488,-66.56,188.628,-66.56,188.628,-66.56C188.628,-66.56,188.628,-200.415,188.628,-200.415C188.628,-200.415,139.488,-200.415,139.488,-200.415C139.488,-200.415,139.488,-66.56,139.488,-66.56Z; M139.488,-66.56C139.488,-66.56,188.628,-66.56,188.628,-66.56C188.628,-66.56,188.628,-200.415,188.628,-200.415C188.628,-200.415,139.488,-200.415,139.488,-200.415C139.488,-200.415,139.488,-66.56,139.488,-66.56Z" keyTimes="0; 0.144444; 0.222222; 0.333333; 0.411111; 0.5; 0.611111; 1" keySplines="0 0 1 1; 0.167 0.167 0.46 1; 0.54 0 0.667 1; 0.333 0 0.833 0.833; 0 0 1 1; 0.167 0.167 0.46 1; 0 0 1 1" fill="freeze" /></path></g></g><g visibility="hidden" id="i6"><animate repeatCount="indefinite" begin="0s" calcMode="discrete" dur="3s" values="hidden; visible; visible" keyTimes="0; 0.056; 1" attributeName="visibility" /><g transform="translate(395.944,774.75)"><animateTransform repeatCount="indefinite" type="translate" attributeName="transform" dur="3s" begin="0s" calcMode="spline" values="395.944 774.75; 395.944 774.75; 395.944 239.75; 395.944 422.33; 395.944 305.93; 395.944 321.73; 395.944 321.73" keyTimes="0; 0.055556; 0.222222; 0.333333; 0.5; 0.666667; 1" keySplines="0 0 1 1; 0.56 0 0.44 1; 0.56 0 0.667 1; 0.333 0 0.667 1; 0.333 0 0.667 1; 0 0 1 1" fill="freeze" /><g transform="scale(0,0)"><animateTransform repeatCount="indefinite" type="scale" attributeName="transform" dur="3s" begin="0s" calcMode="spline" values="0 0; 0 0; 1 1; 1 1" keyTimes="0; 0.111111; 0.222222; 1" keySplines="0 0 1 1; 0 0 1 1; 0 0 1 1" fill="freeze" /><g transform="translate(-163.928,25.22)"><g id="i1"><path fill="#ff6699" d="M152.098,-53.3C148.369,-51.74,145.119,-49.571,142.348,-46.8C139.573,-44.025,137.408,-40.775,135.848,-37.05C134.288,-33.321,133.508,-29.38,133.508,-25.22C133.508,-21.06,134.288,-17.115,135.848,-13.39C137.408,-9.661,139.573,-6.455,142.348,-3.77C145.119,-1.081,148.369,1.081,152.098,2.73C155.823,4.375,159.768,5.2,163.928,5.2C168.088,5.2,172.029,4.375,175.758,2.73C179.483,1.081,182.733,-1.081,185.508,-3.77C188.279,-6.455,190.448,-9.661,192.008,-13.39C193.568,-17.115,194.348,-21.06,194.348,-25.22C194.348,-29.38,193.568,-33.321,192.008,-37.05C190.448,-40.775,188.279,-44.025,185.508,-46.8C182.733,-49.571,179.483,-51.74,175.758,-53.3C172.029,-54.86,168.088,-55.64,163.928,-55.64C159.768,-55.64,155.823,-54.86,152.098,-53.3Z" /></g></g></g></g></g><g visibility="hidden" id="i7"><animate repeatCount="indefinite" begin="0s" calcMode="discrete" dur="3s" values="hidden; visible; visible" keyTimes="0; 0.278; 1" attributeName="visibility" /><g transform="translate(237.602,433.193)"><g transform="rotate(80)"><animateTransform repeatCount="indefinite" type="rotate" attributeName="transform" dur="3s" begin="0s" calcMode="spline" values="80; 80; -15; 0; 0" keyTimes="0; 0.277778; 0.444444; 0.555555; 1" keySplines="0 0 1 1; 0.51 0 0.49 1; 0.51 0 0.49 1; 0 0 1 1" fill="freeze" /><g transform="scale(0.5,0.5)"><animateTransform repeatCount="indefinite" type="scale" attributeName="transform" dur="3s" begin="0s" calcMode="spline" values="0.5 0.5; 0.5 0.5; 1 1; 1 1" keyTimes="0; 0.277778; 0.444444; 1" keySplines="0 0 1 1; 0.51 0 0.49 1; 0 0 1 1" fill="freeze" /><g transform="translate(164.914,72.9)"><g id="i8"><path d="M-151.517,-54.555C-145.701,-60.85,-149.219,-70.275,-146.563,-77.706C-145.289,-81.269,-143.188,-85.296,-139.945,-86.93C-136.707,-88.562,-133.276,-89.388,-129.664,-89.407C-126.052,-89.426,-122.219,-88.267,-118.164,-85.93C-114.109,-83.593,-111.298,-80.922,-109.729,-77.917C-108.16,-74.912,-107.491,-71.726,-107.732,-68.364C-107.973,-65,-108.853,-61.555,-110.383,-58.038C-111.915,-54.518,-113.629,-51.104,-115.532,-47.802C-115.532,-47.802,-126.107,-38.941,-135.319,-38.32C-151.057,-37.26,-156.62,18.977,-110.596,2.748C-91.663,-3.928,-67.913,-35.66,-67.913,-35.66C-63.673,-43.016,-60.743,-50.181,-59.126,-57.154C-57.51,-64.123,-57.27,-70.789,-58.407,-77.146C-59.544,-83.503,-62.144,-89.404,-66.21,-94.848C-70.275,-100.291,-75.989,-105.135,-83.345,-109.375C-91.454,-114.049,-99.304,-116.574,-106.891,-116.944C-114.48,-117.314,-144.663,-123.186,-158.398,-114.336C-174.405,-104.023,-190.35,-82.359,-185.004,-61.814C-182.245,-51.213,-164.398,-40.615,-151.517,-54.555Z" fill="#ff6699"><animate repeatCount="indefinite" attributeName="d" dur="3s" begin="0s" calcMode="spline" values="M-151.517,-54.555C-145.701,-60.85,-149.219,-70.275,-146.563,-77.706C-145.289,-81.269,-143.188,-85.296,-139.945,-86.93C-136.707,-88.562,-133.276,-89.388,-129.664,-89.407C-126.052,-89.426,-122.219,-88.267,-118.164,-85.93C-114.109,-83.593,-111.298,-80.922,-109.729,-77.917C-108.16,-74.912,-107.491,-71.726,-107.732,-68.364C-107.973,-65,-108.853,-61.555,-110.383,-58.038C-111.915,-54.518,-113.629,-51.104,-115.532,-47.802C-115.532,-47.802,-126.107,-38.941,-135.319,-38.32C-151.057,-37.26,-156.62,18.977,-110.596,2.748C-91.663,-3.928,-67.913,-35.66,-67.913,-35.66C-63.673,-43.016,-60.743,-50.181,-59.126,-57.154C-57.51,-64.123,-57.27,-70.789,-58.407,-77.146C-59.544,-83.503,-62.144,-89.404,-66.21,-94.848C-70.275,-100.291,-75.989,-105.135,-83.345,-109.375C-91.454,-114.049,-99.304,-116.574,-106.891,-116.944C-114.48,-117.314,-144.663,-123.186,-158.398,-114.336C-174.405,-104.023,-190.35,-82.359,-185.004,-61.814C-182.245,-51.213,-164.398,-40.615,-151.517,-54.555Z; M-151.517,-54.555C-145.701,-60.85,-149.219,-70.275,-146.563,-77.706C-145.289,-81.269,-143.188,-85.296,-139.945,-86.93C-136.707,-88.562,-133.276,-89.388,-129.664,-89.407C-126.052,-89.426,-122.219,-88.267,-118.164,-85.93C-114.109,-83.593,-111.298,-80.922,-109.729,-77.917C-108.16,-74.912,-107.491,-71.726,-107.732,-68.364C-107.973,-65,-108.853,-61.555,-110.383,-58.038C-111.915,-54.518,-113.629,-51.104,-115.532,-47.802C-115.532,-47.802,-126.107,-38.941,-135.319,-38.32C-151.057,-37.26,-156.62,18.977,-110.596,2.748C-91.663,-3.928,-67.913,-35.66,-67.913,-35.66C-63.673,-43.016,-60.743,-50.181,-59.126,-57.154C-57.51,-64.123,-57.27,-70.789,-58.407,-77.146C-59.544,-83.503,-62.144,-89.404,-66.21,-94.848C-70.275,-100.291,-75.989,-105.135,-83.345,-109.375C-91.454,-114.049,-99.304,-116.574,-106.891,-116.944C-114.48,-117.314,-144.663,-123.186,-158.398,-114.336C-174.405,-104.023,-190.35,-82.359,-185.004,-61.814C-182.245,-51.213,-164.398,-40.615,-151.517,-54.555Z; M-160.568,-58.806C-160.568,-58.806,-156.007,-72.805,-152.958,-79.938C-151.506,-83.334,-150.77,-85.922,-149.581,-88.735C-147.644,-93.318,-144.449,-96.368,-141.329,-98.188C-138.209,-100.008,-134.309,-100.918,-129.629,-100.918C-124.949,-100.918,-121.179,-100.008,-118.319,-98.188C-115.459,-96.368,-113.293,-93.939,-111.818,-90.908C-110.347,-87.873,-109.394,-84.449,-108.959,-80.638C-108.528,-76.823,-108.309,-73.009,-108.309,-69.198C-108.309,-69.198,-107.431,-19.298,-93.009,-9.674C-79.888,-0.919,-31.057,-17.316,-43.704,-26.742C-58.486,-37.759,-60.989,-82.458,-60.989,-82.458C-60.989,-90.949,-62.029,-98.619,-64.109,-105.468C-66.189,-112.313,-69.308,-118.208,-73.468,-123.148C-77.628,-128.088,-82.829,-131.899,-89.069,-134.588C-95.309,-137.273,-102.678,-138.618,-111.169,-138.618C-120.529,-138.618,-128.589,-136.883,-135.349,-133.418C-142.109,-129.949,-148.264,-124.578,-153.809,-117.298C-153.809,-117.298,-194.25,-67.799,-194.25,-67.799C-194.25,-67.799,-160.568,-58.806,-160.568,-58.806Z; M-152.299,-58.755C-152.299,-58.755,-150.534,-76.005,-149.754,-79.82C-148.974,-83.631,-147.589,-87.055,-145.594,-90.09C-143.603,-93.121,-141.044,-95.55,-137.924,-97.37C-134.804,-99.19,-130.904,-100.1,-126.224,-100.1C-121.544,-100.1,-117.774,-99.19,-114.914,-97.37C-112.054,-95.55,-109.889,-93.121,-108.414,-90.09C-106.943,-87.055,-105.989,-83.631,-105.554,-79.82C-105.123,-76.005,-104.904,-72.191,-104.904,-68.38C-104.904,-68.38,-104.904,0,-104.904,0C-104.904,0,-57.584,0,-57.584,0C-57.584,0,-57.584,-81.64,-57.584,-81.64C-57.584,-90.131,-58.624,-97.801,-60.704,-104.65C-62.784,-111.495,-65.904,-117.39,-70.064,-122.33C-74.224,-127.27,-79.424,-131.081,-85.664,-133.77C-91.904,-136.455,-99.273,-137.8,-107.764,-137.8C-117.124,-137.8,-125.184,-136.065,-131.944,-132.6C-138.704,-129.131,-144.859,-123.76,-150.404,-116.48C-150.404,-116.48,-184.049,-67.23,-184.049,-67.23C-184.049,-67.23,-152.299,-58.755,-152.299,-58.755Z; M-152.299,-58.755C-152.299,-58.755,-150.534,-76.005,-149.754,-79.82C-148.974,-83.631,-147.589,-87.055,-145.594,-90.09C-143.603,-93.121,-141.044,-95.55,-137.924,-97.37C-134.804,-99.19,-130.904,-100.1,-126.224,-100.1C-121.544,-100.1,-117.774,-99.19,-114.914,-97.37C-112.054,-95.55,-109.889,-93.121,-108.414,-90.09C-106.943,-87.055,-105.989,-83.631,-105.554,-79.82C-105.123,-76.005,-104.904,-72.191,-104.904,-68.38C-104.904,-68.38,-104.904,0,-104.904,0C-104.904,0,-57.584,0,-57.584,0C-57.584,0,-57.584,-81.64,-57.584,-81.64C-57.584,-90.131,-58.624,-97.801,-60.704,-104.65C-62.784,-111.495,-65.904,-117.39,-70.064,-122.33C-74.224,-127.27,-79.424,-131.081,-85.664,-133.77C-91.904,-136.455,-99.273,-137.8,-107.764,-137.8C-117.124,-137.8,-125.184,-136.065,-131.944,-132.6C-138.704,-129.131,-144.859,-123.76,-150.404,-116.48C-150.404,-116.48,-184.049,-67.23,-184.049,-67.23C-184.049,-67.23,-152.299,-58.755,-152.299,-58.755Z" keyTimes="0; 0.333333; 0.444444; 0.555556; 1" keySplines="0 0 1 1; 0.51 0 0.49 1; 0.51 0 0.49 1; 0 0 1 1" fill="freeze" /></path></g></g></g></g></g></g><g transform="matrix(1,0,0,1,402.516,506.093)" visibility="hidden" id="i9"><animate repeatCount="indefinite" begin="0s" calcMode="discrete" dur="3s" values="hidden; visible; visible" keyTimes="0; 0.222; 1" attributeName="visibility" /><g id="i8"><path d="M-198.244,-215.8C-205.81,-211.71,-206.189,-194.145,-198.652,-190C-184.831,-182.399,-165.208,-182.499,-151.332,-190C-143.766,-194.09,-143.387,-211.655,-150.924,-215.8C-164.745,-223.401,-184.368,-223.301,-198.244,-215.8Z" fill="#ff6699"><animate repeatCount="indefinite" attributeName="d" dur="3s" begin="0s" calcMode="spline" values="M-198.244,-215.8C-205.81,-211.71,-206.189,-194.145,-198.652,-190C-184.831,-182.399,-165.208,-182.499,-151.332,-190C-143.766,-194.09,-143.387,-211.655,-150.924,-215.8C-164.745,-223.401,-184.368,-223.301,-198.244,-215.8Z; M-198.244,-215.8C-205.81,-211.71,-206.189,-194.145,-198.652,-190C-184.831,-182.399,-165.208,-182.499,-151.332,-190C-143.766,-194.09,-143.387,-211.655,-150.924,-215.8C-164.745,-223.401,-184.368,-223.301,-198.244,-215.8Z; M-198.467,-147.8C-210.516,-112.092,-210.978,-30.367,-197.972,-6C-192.017,5.157,-154.767,3.408,-149.652,-8.907C-132.396,-50.455,-144.016,-126.092,-151.147,-147.8C-156.07,-162.785,-193.424,-162.745,-198.467,-147.8Z; M-198.392,-227.186C-191.591,-195.464,-189.919,-31.721,-197.317,-7.763C-200.766,3.407,-148.766,0.407,-150.997,-3.513C-158.912,-17.422,-157.016,-190.592,-151.072,-227.186C-148.251,-244.551,-202.016,-244.092,-198.392,-227.186Z; M-227.244,-195.008C-197.516,-105.593,-198.244,0,-198.244,0C-198.244,0,-150.924,0,-150.924,0C-150.924,0,-151.516,-131.593,-172.424,-208.258C-177.675,-227.513,-235.031,-218.428,-227.244,-195.008Z; M-180.244,-217.258C-195.516,-153.593,-198.244,0,-198.244,0C-198.244,0,-150.924,0,-150.924,0C-150.924,0,-159.516,-105.593,-128.674,-204.508C-126.294,-212.143,-178.496,-224.546,-180.244,-217.258Z; M-198.244,-215.8C-198.244,-215.8,-198.244,0,-198.244,0C-198.244,0,-150.924,0,-150.924,0C-150.924,0,-150.924,-215.8,-150.924,-215.8C-150.924,-215.8,-198.244,-215.8,-198.244,-215.8Z; M-198.244,-215.8C-198.244,-215.8,-198.244,0,-198.244,0C-198.244,0,-150.924,0,-150.924,0C-150.924,0,-150.924,-215.8,-150.924,-215.8C-150.924,-215.8,-198.244,-215.8,-198.244,-215.8Z" keyTimes="0; 0.222222; 0.277778; 0.355556; 0.466667; 0.6; 0.722222; 1" keySplines="0 0 1 1; 0 0 1 1; 0.167 0.167 0.667 1; 0.333 0 0.667 1; 0.167 0 0.667 1; 0.333 0 0.45 1; 0 0 1 1" fill="freeze" /></path></g></g></svg>